<svg width="173" height="40" viewBox="0 0 173 40" fill="none" xmlns="http://www.w3.org/2000/svg">
<path d="M67.908 17.312V11.5H65.5V28.26H67.908V26.792V25.0699L68.8303 26.5242C69.1955 27.1002 69.7117 27.5712 70.3948 27.9346C71.0634 28.2902 71.8524 28.476 72.776 28.476C73.8053 28.476 74.7376 28.2127 75.5843 27.6872C76.4295 27.1626 77.1053 26.4252 77.6108 25.4603C78.0978 24.4845 78.348 23.3564 78.348 22.064C78.348 20.7878 78.098 19.6763 77.6115 18.7171C77.1065 17.7526 76.432 17.0244 75.5897 16.5161C74.7435 16.0054 73.8015 15.748 72.752 15.748C71.9651 15.748 71.2162 15.9222 70.4999 16.273L70.5 16.2731L70.4925 16.2766C69.7745 16.6136 69.2186 17.0598 68.8092 17.6104L67.908 18.8224V17.312ZM75.3708 19.7532L75.3709 19.7532L75.3731 19.7572C75.7423 20.4218 75.916 21.1971 75.916 22.064C75.916 22.9318 75.742 23.7181 75.3785 24.4089L75.3748 24.4159L75.3708 24.4228C74.9971 25.0813 74.5075 25.6029 73.8992 25.9716L73.8992 25.9716L73.8935 25.975C73.2757 26.3384 72.6126 26.524 71.912 26.524C71.2027 26.524 70.5347 26.3502 69.9161 26.0045L69.916 26.0046L69.9065 25.999C69.2822 25.6317 68.7882 25.1172 68.4269 24.4668L68.4269 24.4668L68.4241 24.4618C68.0571 23.7827 67.884 22.9935 67.884 22.112C67.884 21.2322 68.0565 20.4492 68.4255 19.7838C68.7858 19.1181 69.2808 18.5998 69.9112 18.2462C70.5298 17.8834 71.1996 17.7 71.912 17.7C72.6213 17.7 73.2837 17.8739 73.8895 18.2227C74.5036 18.5763 74.9961 19.0929 75.3708 19.7532Z" fill="white" stroke="url(#paint0_linear)"/>
<path d="M98.5119 15.024C100.144 15.024 101.456 15.528 102.448 16.536C103.456 17.528 103.96 18.92 103.96 20.712V28.512H100.6V21.168C100.6 20.128 100.336 19.336 99.8079 18.792C99.2799 18.232 98.5599 17.952 97.6479 17.952C96.7359 17.952 96.0079 18.232 95.4639 18.792C94.9359 19.336 94.6719 20.128 94.6719 21.168V28.512H91.312V21.168C91.312 20.128 91.048 19.336 90.52 18.792C89.992 18.232 89.272 17.952 88.36 17.952C87.432 17.952 86.696 18.232 86.152 18.792C85.624 19.336 85.36 20.128 85.36 21.168V28.512H82V15.216H85.36V16.824C85.792 16.264 86.344 15.824 87.016 15.504C87.704 15.184 88.456 15.024 89.272 15.024C90.312 15.024 91.24 15.248 92.056 15.696C92.872 16.128 93.5039 16.752 93.9519 17.568C94.3839 16.8 95.0079 16.184 95.8239 15.72C96.6559 15.256 97.5519 15.024 98.5119 15.024Z" fill="white"/>
<path d="M113.052 28.728C111.772 28.728 110.62 28.448 109.596 27.888C108.572 27.312 107.764 26.504 107.172 25.464C106.596 24.424 106.308 23.224 106.308 21.864C106.308 20.504 106.604 19.304 107.196 18.264C107.804 17.224 108.628 16.424 109.668 15.864C110.708 15.288 111.868 15 113.148 15C114.428 15 115.588 15.288 116.628 15.864C117.668 16.424 118.484 17.224 119.076 18.264C119.684 19.304 119.988 20.504 119.988 21.864C119.988 23.224 119.676 24.424 119.052 25.464C118.444 26.504 117.612 27.312 116.556 27.888C115.516 28.448 114.348 28.728 113.052 28.728ZM113.052 25.8C113.66 25.8 114.228 25.656 114.756 25.368C115.3 25.064 115.732 24.616 116.052 24.024C116.372 23.432 116.532 22.712 116.532 21.864C116.532 20.6 116.196 19.632 115.524 18.96C114.868 18.272 114.06 17.928 113.1 17.928C112.14 17.928 111.332 18.272 110.676 18.96C110.036 19.632 109.716 20.6 109.716 21.864C109.716 23.128 110.028 24.104 110.652 24.792C111.292 25.464 112.092 25.8 113.052 25.8Z" fill="white"/>
<path d="M129.821 15.024C131.405 15.024 132.685 15.528 133.661 16.536C134.637 17.528 135.125 18.92 135.125 20.712V28.512H131.765V21.168C131.765 20.112 131.501 19.304 130.973 18.744C130.445 18.168 129.725 17.88 128.813 17.88C127.885 17.88 127.149 18.168 126.605 18.744C126.077 19.304 125.813 20.112 125.813 21.168V28.512H122.453V15.216H125.813V16.872C126.261 16.296 126.829 15.848 127.517 15.528C128.221 15.192 128.989 15.024 129.821 15.024Z" fill="white"/>
<path d="M150.68 21.576C150.68 22.056 150.648 22.488 150.584 22.872H140.864C140.944 23.832 141.28 24.584 141.872 25.128C142.464 25.672 143.192 25.944 144.056 25.944C145.304 25.944 146.192 25.408 146.72 24.336H150.344C149.96 25.616 149.224 26.672 148.136 27.504C147.048 28.32 145.712 28.728 144.128 28.728C142.848 28.728 141.696 28.448 140.672 27.888C139.664 27.312 138.872 26.504 138.296 25.464C137.736 24.424 137.456 23.224 137.456 21.864C137.456 20.488 137.736 19.28 138.296 18.24C138.856 17.2 139.64 16.4 140.648 15.84C141.656 15.28 142.816 15 144.128 15C145.392 15 146.52 15.272 147.512 15.816C148.52 16.36 149.296 17.136 149.84 18.144C150.4 19.136 150.68 20.28 150.68 21.576ZM147.2 20.616C147.184 19.752 146.872 19.064 146.264 18.552C145.656 18.024 144.912 17.76 144.032 17.76C143.2 17.76 142.496 18.016 141.92 18.528C141.36 19.024 141.016 19.72 140.888 20.616H147.2Z" fill="white"/>
<path d="M165.853 15.216L157.621 34.8H154.045L156.925 28.176L151.597 15.216H155.365L158.797 24.504L162.277 15.216H165.853Z" fill="white"/>
<path d="M34.1422 5.85781C30.3647 2.08031 25.3422 0 20 0C14.6578 0 9.63531 2.08031 5.85781 5.85781C2.08031 9.63531 0 14.6578 0 20C0 25.3422 2.08039 30.3646 5.85781 34.1422C9.63523 37.9198 14.6578 40 20 40C25.3422 40 30.3647 37.9197 34.1422 34.1422C37.9197 30.3647 40 25.3422 40 20C40 14.6578 37.9196 9.63539 34.1422 5.85781Z" fill="#33CC95"/>
<path d="M20.5714 8V33.1429" stroke="white" stroke-width="2" stroke-linecap="round" stroke-linejoin="round"/>
<path d="M26.2857 12.5714H17.7143C16.6534 12.5714 15.636 12.9929 14.8859 13.743C14.1357 14.4931 13.7143 15.5106 13.7143 16.5714C13.7143 17.6323 14.1357 18.6497 14.8859 19.3999C15.636 20.15 16.6534 20.5714 17.7143 20.5714H23.4286C24.4894 20.5714 25.5069 20.9929 26.257 21.743C27.0072 22.4932 27.4286 23.5106 27.4286 24.5714C27.4286 25.6323 27.0072 26.6497 26.257 27.3999C25.5069 28.15 24.4894 28.5714 23.4286 28.5714H13.7143" stroke="white" stroke-width="2" stroke-linecap="round" stroke-linejoin="round"/>
<defs>
<linearGradient id="paint0_linear" x1="71.924" y1="11" x2="71.924" y2="28.976" gradientUnits="userSpaceOnUse">
<stop stop-color="white"/>
<stop offset="1" stop-color="white" stop-opacity="0"/>
</linearGradient>
</defs>
</svg>
